<svg xmlns="http://www.w3.org/2000/svg" class="cr-svg" viewBox="0 0 764.4 695.8"><path d="M100.6 37.1H86.7l6 14.3 2 4.7 4.6 5.2 1.9 2.4 5.7 5 2.7 3.4 3.6 2.3 4 1.6 43.5 19.6 86.2 19.4 42.4 1.3 96.7-5.2 3.2-3.7 1.3-2.8-1.3-3-1.3-2.5-2.6-1.4h-3.4l-2.7.8s-1.5.3-2.6.3h-2.3l-2.4-2.4-1-2.9-2.7-2-1.8-1.6h-4.7l-3-2.1-2.5-1-2.4-1.1-1.3-4-4-3-2 1.7-1.9 1.4-1.8.5h-2s-1.1-.5-2.5-1.6l-2-2s-.6-.6-1.9-.6-1.3.8-2.3 0-3.4-3.4-3.4-3.4-.8-1.6-2.1-1.6h-3.7l-3.2.5c-1.5.3-1.5-.2-2.8.6-1.4.7-1.6 2-2.7 2h-5.7c-1.6 0-2.7-.2-3 1.1l-.2 2.6s-2.3 2.1-3.6 2.6-.8 1.3-3 1.9c-2 .5-2.8 0-5 1.3-2 1.3-2.3 1-3.8 1.8-1.6.8-4.5 1-4.5 1s0 2.4-2.6 2.4-4.7-.2-4.7-.2-2.7-3.2-3.7-3.7-.3-1.6-3.1-1.6h-6.9c-1.3 0-4.2-.2-5.2-.5s-4-2.1-5.2-2.4c-1.4-.2-2.1-2.3-4.2-2.3h-7.9c-1 0-5-1.3-5-1.3l-4-2.4s-1.2-1.6-3.6-1.6c-2.3 0-3.1-.5-4.7 0s-4 2.4-4 2.4h-2c-1.6 0-2.1-.3-3.7-1.3s-2-2.1-4-2.9c-1.8-.8-3-2-4.1-2h-1.9c-2.3 0-2.3 1.2-3.4 0a10 10 0 0 0-3.4-3c-1.8-1-2.6-1.8-3.9-2.3-1.3-.6-2-1.6-3.7-1.6-1.5 0-.2-.5-2.8-.5h-5c-1.6 0-3 0-5.5-.6-2.7-.5-3.2-.5-5-1s-.8-.8-4-2.4c-3-1.5-2.6-2-3.9-2s1.6.5-1.8-.3-3.4 0-4.7-1.3-1-1.6-3.2-3c-2-1.2-2-.4-3.9-3.6-1.8-3.1-1.8-10.8-2.6-11.8s-10.4.3-3.7.3h-.4c-1.8 0 0-1-7.2-1-16-.3-14.8.6-20 .3-4.3-.3-9.2-.3-16.2-.2" class="cr-shape"/><path d="m235.9 98.3-20-16.8-14.6-4.7-7.9-3.7-7.8-4.2H173l-5.8-1-5.2-4.2-4.2-.6-6.3-4.7-4.7-2.6-6.3-3.1-5.8.5-4.2 6.3-6.3 12-3.6 3.7s-2.7 1.6-1 3.7c1.5 2 1.5.5 1.5 2.6 0 2 2.6 2 0 2.6-2.6.5-1.6.5-4.2.5h-5l-1.6-.2-2.3 1.8s-2.6 0-1.3 2.1 5.5 2.6 5.5 2.6l5 3.2 1.8 3.1s.5 2.9-.8 2.9-1.6-.8-1.8.8c-.3 1.6-.3 3.7-.3 3.7s-.8 1.3-1.8 1.3h-15s-4.7 1-5.7 1-4.2-2.3-4.2-2.3l-5.8-4.2-2.9.5-1 2.9-5.8 5-4.7 2-1.8 1.6s-1.4 2.6.2 2.9 4-1 4-1l3.4-.3s2 3.1 3.4 3.1 5.2 1 5.2 1l4.7 1.7L93 121l1.3 2.3.3 3.7 2.1 1.8 4.5 2.4s3.1.5 5.2 0 2.9-1 4.5-.8c1.5.3 4.4 1.3 4.4 1.3l4.2 4.7c.8 1 2.1 4 2.1 4l3.4 8.3-.5 5s-2.4 3.4-2.6 4.5c-.3 1-3 2.9-4 3.1s-2 1.9-2 1.9l.7 3.6c.3 1 0-.5 0 1.6v2.4h2.1s1.3-2.4 2.4-3.4l4-4s2.3-1 2.5 0l.6 4.2s0 2.9-1 4c-1.1 1-2.4 2.8-2.4 2.8l-2.4-.5s-2.4-.5-2.4.8v2.6l-2 .3s-3.7-.5-4.3.8-2.8 3.6-2.8 3.6l-4.5 1.3c-1.3.3-3.7 2.4-3.7 2.4l-3.9.8s-2.9 1.8-2.9 2.9 2.9 5.7 2.9 5.7l.8 5.5.3 4.2-2.1.6-3-1.6-1.5 1.8s1 1.9 1 2.9v3.1l-3.1.8-2 .6-2.5 2.6-4.1 2s-.6 1.1-.8 2.2c-.3 1 0 3.9 0 3.9l3.9 4.2 2.4 1.6-1 1.5-1.4 3v8.8l.3 6.6 3.1 5 3.4 4.7 1.3 3.7a98 98 0 0 0 1.3 10.4l4 5.5 8.4 9.5 5.7 4.4 2.9 6.3 2.9 3.4 3.4 7.1v4.2c0 1.3-.5 1.8.5 1.8h4.7l4.5 1.3 10.7 1h6.3l4.5 3.2 3.1-.2 2.4 1.3c1 .5 2 2 3.1 2 1 0 3.2-1.2 3.2-1.2h2.3s1.6 1.3 3.7 1.3h5.5l6 3.4 6.3 4.4 3 1.9h4.4l1.5 1.5 3 3.7.7 3.7.5 1.8 3.4 1.3 4.8 2.4 3.1 4.7 5.2 5.8 10-5.5s7.9-13.7 7.9-15.2l-.3-21.8-4.2-19.1-1.3-2.6-2.9-.3-2.3-1.8-3-2.4.6-3.4 2-.3-1.2-1.8-2.6-1.3-2.1-.8-4.8-4.2-3.4-4.2-1.8-8.1-1.8-2.9v-6.3l.2-5.2-3.1-4.7-3.2-5.5-4.2-3.7-2.8-3.4-3-1.9-1.5-1.3-3.7-.5-3.4-1.8-1.8-2.6-.3-1.4 3 2.7 2.3 1.3 2 1.3 1.6-.8 1.6-.3 2.9 2.4 3.1 2.9 4.5 5.2 4.5 4 5 9.1 3.9 4.2 2.9 1 5.2 1.4 10.2 3.4h4.7l3 2.6 1.7.5 6.9 2.1 36.7 11 30.6-16.2 5.3-53L298 181l-79.2-52.4zm67.3-61.1-.2 8.6.2 6.6v6.3c0 1.6.8 6.5.8 6.5l1.3 4 4.2 2.6h4.7l6-.5 3.7-2.7 4-1 2.3 2.4 3.4 3.9 3 2.6h2.5l1 1.6h2s1.8 2.3 3.3 1l3.4-2.6 2.4-.3 1 2.4 4 3.2 3.4 3.1 4.7 1.3 3.4.3 2.6 2.3 3.7 4.5.8 1.3s2.6 1.3 4 1.3h3c1.4 0 1.4-.8 3.2-.5 1.8.2 4.7 1 4.7 1l2.4 2.4 2.6 7 2.4 5.8s0 1.3.5 2.4 3.1 2.3 3.1 2.3 1.3 4 2.6 4 2.1.5 3.5.8c1.3.2 8.9 4.7 8.9 4.7l1.8 2.9v3.1l.3 2.9 2.8 4.2s3.7.5 5.3.5h10.7s1.9 3.2 3.7 3.4c1.8.3 1.8.3 3.1.3s7.9-1 9.2-1 .5-.6 4.2 0 6.6 2 6.6 2l6.3 3.7s3.4 1.6 4.7 1.8l6 1h5.8c1.3 0 6.5-3 8.3-3s8.2-3 8.2-3l3.9-.2 4.7-.5 6-2.7s1.4-.2 3-.2c1.5 0 1.5 1 2.6-.8 1-1.8 3.6-2.6 3.9-3.7q.4-1.4 1.3-2.9l1.6-3.9 1.5-1.8s1.4-.8.3-1.6-1.3-.8-2.4-2.4-2-3.9-2-5.2v-4.2c0-2 1-2 0-2.6-1.1-.5-2.4-2.1-4.2-3.2-1.9-1-1.9-1.5-3.7-2.3s-1.9 0-3.2-1.8-1-1-2.6-3.2c-1.6-2-2.3-2.3-2.3-3.4 0-1 0-2.9-1-4.5-1.1-1.5-.9-1.8-2-2.8-1-1-1.2-.6-2.5-2.7-1.4-2-2.1-2.3-2.7-3.9l-1-3.4-1.6-2.6s-.5 1-.5-.8.5-3.7 0-5.5-.3-2.9-1.3-5.5-.5-2.4-1.3-4.5c-.8-2-.3-3.1-1-5.2-.9-2.1-1.4-2.9-2.2-4.2s-1-2.1-1.5-3.1-1.2-2.8-1.4-4.2c-.5-4.2-4.3-7.4-4.3-7.4l-110.3-.5-57.7.1z" class="cr-shape"/><path d="m332.5 234.7-22.3.4-4.9.9-3-.7-2.5-1.3-2.6-.8h-2.5l-2.3 1.2s-1.2 1.9-1.2 2.5.4 2.6-.2 3.7c-.5 1-3.1 4.2-3.1 4.2s.1.9-1 1.8c-1 1-1.8 2.5-1.8 2.5s-.5 1.8-.5 2.4 1.3 2.4 1.3 3.2v2.5s0 1.2-.6 1.3-2.3.6-3.2 1c-.9.6-2 .5-2.6 1.1q-.6 1-1 3c-.2 1-.6 2.5-.6 3.3s1.6 1.8.4 2.6c-1.1.8-1.7 2.1-2.7 2.1h-1.9c-1.8 0-2 .6-3 0s-1.8-.8-2.5-1.8q-.9-1.5-2.3-2.4c-1-.5-1.5-1.1-3-2-1.6-1-2.8-2.3-3.7-2.8s-1.8-1.3-2.9-1.2-2.9 1.2-3.8 2-1.8 2-2.6 2l-2.8.6-.9 1.3 3 1 .7 1.9v1.3l.4 1.7s1.4.3 2.5.3l4-.3h2.7l1.4.3s1 .4 1.4 1c.6.7 1 .7 1 1.5 0 .7-.3.6 0 1.8q.4 1.9.6 2l4.9 3.2 2.6 2.1 2.2.4 1 1.2 1.6 1.7 2.1 2 1.7 1.5c.7.6 1.3 1 3.4 1.9l4.5 1.8c.5.1 2.4.5 3.5.5h2.8l2.9.7 1.1.8s1 .8.4 1.2l-.7.3-2.1-.5s-1.2-.5-1.7-.5l-2 .3s-1-.3-1.7 0c-.8.2-1.7.7-1.7.7l-1 1.6s0 1 .6 1q.7.5 1.7.2c.8-.3 1.2-1.2 1.8-1.2h8.2l5 1.2 3.6.8 5 2.2s1.8 1.5 2 2.1c.3.7 1.3 1.8 1.3 1.8l.9 3-.4 1.4s-1.6 1.5-1.7 2.6c-.2 1-1 1.2-.3 2.4.8 1.1 1.6 1.5 2.4 2.8l3.8 5.4c.2.5 4 4.3 4.4 5.2l2.1 3 5 3.9s1.6 2.2 1.8 3c.3.8.4.5.4 1.7s.8 1-.2 2.7l-2 3.4s-3.4 1.9-3.7 2.5c-.2.7-1.3 2-1.4 2.6s-1.4 2.3-1.6 3.2c-.1 1-.9 2.9-1 3.4q-.3.9-.3 1.7c0 .5-.6 1.3-.6 1.3s-.3 1-.2 1.7q.2 1 .8 1c.5.2 2.8.3 2.8.3l1.8.2.4.7-.4 2s-.5.5-.5 1.2-.8.4.4 1.3c1.1 1 .9 1 1.8 1h2s.9-.7.9.6l.4 3.3c0 .7 1 2.6 1 2.6l3 1.5.4 1.2 2.3 2.5 2.2.5 3 .8 2.2 1.6 2 2.5c.3.5 2.2 2.3 2.2 2.3s2.5.7 3.4.6c1-.2 3.7-2.7 4.4-2.8.6-.1 2-.2 3-.6s1.8-1 3.4-.6q2.2.7 3.4.7c.8.1 2.9.8 4.2.8s2.9-.2 3.8 0c.9.1 5.7 3.1 5.7 3.1l4.8 1.5 3 2q1.3.9 3 1.5c1 .5 2.9 1 4.6 1.4s2.7.4 4 .4 1.7-.4 3.2 0c1.4.4 3.4.7 4.4 1.6l4.5 3.7 3.1.9 2.3 1.2 2.8 1.2s2.3.5 2.8 1 1.7 1.3 1 2.1q-1.5 1.1-1.8 1.8l-.1 2.3v2l1.2 2s2-.4 2.5 0l2 1.6.3 1.7h8.9s1 1.8 2.8 2.2 2.9 1.2 3.6 1.2 2.8-.3 3.8 0 3 .5 3 .5 1.6 1.7 2.7 2.3c1 .5 4.3.9 5.2.9s4.2 1 4.2 1l5.4 3.4 2.9 1.2 2.9.8 5.3 4.3 3 2.8.8 1.2h3c.6 0 1.7.2 2 .7.3.6.8 3.7.8 3.7s0 1.5 1.2 2.2l4.6 3 4.7 1.4c.5 0 3.6 1.5 4.3 2 .7.3 2 .8 3 1.9s1.5 3.5 1.5 3.5-.3 2.1 0 3l.7 2.5 3.6.6c.8 0 1.2-.2 2.3.5 1.2.6 3 2.5 3 2.5l9 8 4 5.6c.7.8 2.6 2.6 3 3.3s3 4.8 3.2 5.5l.6 3.3.7 4.8v3.7s-2 1.3-2 2v3c0 .9 1 2.8 1.5 3.8l1.7 1.8 2 1.3.5 1.4-1.6.8H542s-1 0-1 .8l.2 3.2s-.1-.3.7.4l2 1.4s0 1.6-.6 2l-2.6 1.5-1.3 3.2s-1 0-2 .4-1.8.4-1.8 1.3l.1 1.3 3.7 1.4s.8-.8 1.4-1.1c.7-.4 1.5-1.1 2.4-1 1 .2 2.2.2 2.7.2s1.2-1 1.2-1 1.6 1.5 1.6 2.1a2 2 0 0 1-1.2 1.7q-.7.4-1.6.4c-.6 0-.7.2-1.7 0q-1.2-.7-1.8-.7c-.5 0-.6.2-1.7 1.4l-3 3.5-2.1 2.1-1.3 1.9-.5 3.1-.3 2.9-1.4 3.3s-1 1.5-1.9 1.5-5.2.6-5.2.6l-3.3 1.1-1.7 2.4-2.4.5-.6 3.6c-.3.9-1.7 2.2-2.2 2.6s-1.6 1-1.7 1.8c-.2.8-.3 3.4-.2 4.3.2 1 2 4.6 2 4.6l7.5 6.8 1.8.2 2.4.4 2.6 3.5s2.9 4.5 3.5 4.9l2.8 2 2 1 1.6 2.2 2.7 1.4 2 1.9 3.5 3.1 2.4 2.4s2 .4 3.7.4l3.7-.2c.5 0 3.7-1.4 3.7-1.4s2-.4 3.1-.4l3.7-.1h2.9l2.3 1.4 3.2 2.5 3.5 1.3s1.6.8 2.6 1.6q1.7 1.1 4 1l2.7-.2 3.3.6s2.3 1.2 3.2 1.9 1.5 1.4 2.7 1.5c1.1.2 7 .2 7 .2l1.8-1.6.5-1.7-.8-1.4 1.4-2.3 1.2-1.2s1-1.3.7-1.8l-1.5-2-.2-2.3.4-2.6 1.5-1.6-1.2-2.8s-1.5-1.3-2.2-1.3c-.6 0-1.6-1.3-1.6-1.3l1.5-3.1.6-2.5-2.8-2.1-2.7.1-3.1-2.3-4.2-2.4a20 20 0 0 0-4.2-2h-3c-.8 0-2.9-1.5-2.9-1.5l-3.1-2.4-3-3.7-.7-3.2s.7-2.3.7-3q.2-1 0-2.3l-1.6-2-2.5-1.8-2.8-1-1.8-2.1-.1-3 .6-3 1.9-.4 2.6.9s.9.6 1.4.6 2.1-1.5 2.1-1.5.5-1.4 1.5-1.4h3.8c.6 0 2.6-1 2.6-1l.4-2h1.8l1.8 1 5.2 1.3 2.6 4.3s.4 1.7.4 2.3c0 .7.6 3.7.6 3.7l1.5 2.2 3.8 2s1.7.4 2 1l2.3 2.7 3.1-.2 2.3-1.1 2 2.3 3.7 1.5h2.1l2.5 1.1 2.6.3 2.8-1.7 2.5-.7 2.5 1.9 3.1 4.3.3 2.5-.2 1.8h-1.4l-1.3-1.5-1.2-1.1h-1.2l-.6-1.4-.8-.8-1.2 1-.1 2.3q-.2 0 .4 2c.5 1.1 1.5 2.5 1.5 2.5l9.4 14s3.6 5 3.6 5.4c0 .6.8 2.5.8 3.3s.4 2.2-.3 3.3-.2 2.6-.9 3.5c-.6 1-3.2 2.6-3.2 2.6l-3 3.7-1.8 1.7-.9 2.4s-.6 1.8.1 3l2.5 3.4 3.6 1.4 5.6 4.6s4.5 1.7 5.1 2.3l7.2 4.7 4 2.7s5.5 3.8 5.9 4.3c.3.6 2.7 2 2.7 2.5s1.7 4.1 1.7 4.1l6.2 9 1.4 3.8 1.8 3.8s.6 2.3.6 2.8-1 3.4-1 3.4-1 1.7-1 2.4l-.5 3.9c0 .5 2.3 2.9 2.3 2.9l1.9.4h3l1.6-3.8-2.4-46.5 19-36.9 22.5-85S711 480.4 710 480.2c-1 0-23-10.8-23-10.8l-4.4 4.6-2 1.3-2.7-2.1s-1.7-2.5-1.9-3.3l-.2-4.5-1.3-3s-1.5-1.8-2.1-2l-2.3-1.2s-2 .7-2.8.7-2.1.2-3 .4c-.7.3-1.8 1.2-1.8 1.2s-1.4-.4-2-1.2c-.4-.8-.4-1-.4-2.5 0-1.4 1-3.6.9-4.8-.2-1.2-.8-4.2-1.5-5s-2.7-3.3-3.2-3.5-3.2-2.4-4.5-2.4h-4l-4.1-3.3s.6-1.7.5-2.5l-.4-2.4s-.7-1-1.7-1.2-1.4.2-2.1-.5l-2-2.5s-1.7-1.5-2.6-1.5l-6.5.5h-6s-1.9-1.7-2.4-1.8-3.4-1.8-3.4-1.8-1-1.5-1.7-2.1c-.8-.7-.2-1.9-2-1.5l-2.5.4s-1.2-.8-2-2l-2.7-3.2s-1-1.2-1.4-1c-.6.3-1.2.3-1.7 1.4s-1 3.8-1 3.8l-1 1.6s-.3.5-1.2.5c-1 0-6.2-.7-6.2-.7s-1.4 0-1.4 1c0 1.1-.4 3.5-.4 3.5s.1.9-.8.9l-2.9-.3-2.4-2.5-1.6-1.7-50.5 12-87-72L364 294z" class="cr-shape"/><path d="m503.2 159 16.8-.5s3.4 3.4 4.4 3.4h4.2c2.4 0 5-3.1 6-3.4 1.1-.2 3.7-2.3 5-2.8s3-2.4 4.2-2.4 5.3 1.3 5.3 1.3l2.3 6.3s4.5 9.7 4.7 11.5 2.1 7.6 2.7 8.7c.5 1 1.3 4.2 1.3 4.2l3.6.8 1.3 1.3s1.4 1.8 1.6 3.4l.5 4c.3 1.2.6 5.4 1.6 7.2 1 1.9 10.5 15 10.5 15l42.5 51.4 14.9 18.6 7.3 8.3s1.3 2.4 3.7 2.4h8.1l1 1.3q-.1.1 1.4.3c1 0 2-.5 2-.5l1.7.2-.3 5s-.8 2 .5 3.1c1.3 1 4 4.8 4 4.8l7.6 9.1 12.5 20 6 7.6 2.4.5h4.2l1-1.9h2.4l1.3 2.1v5.8l2.4 4.7 4 3.7s1.5 1.3 3.3 1.6c1.9.2 2.1-.8 4 .5s4.7 4.2 4.7 4.2 3.9.5 5.2.5-.2-1 4.7-1 9.2.7 9.2.7 2.9 0 3.2 1.4c.2 1.3 1.8 5.2 1.8 5.2l1.8 1 4.2 1.6s-1 1.3.8 2.1l3.1 1.3 3.2 4-.5 1s-2 1.6-.7 3.7-1 3.7-2.6 1.9c-3.2-3.5-19 36.2-19 36.2L684 475.7l-4.4-2.1s-1.9-.6-2.6-2.1c-.8-1.6-1.6-5-1.6-5s0-4.2-1-4.7l-3.5-2.1-3.4.5-3.4.5-1.8 1s-2.9-1.8-2.9-2.8.5-3.4.5-4.5l-.2-6.3-6.3-5-5.3-2s-1.8.2-2.9-1c-1-1.4-2-3.2-2.3-4.5s-3.2-4.2-3.2-4.2-3.6-3.2-4.7-3.2h-6.3l-4.4.3-7.6-3.4-3.7-4-2.9.6-4.2-5-2.8-.5-1.9 4.4v1.9l-5.2.7h-2.6l-2.1 3.5s.2 2.6-.8 2c-1-.5-4.7-3.6-4.7-3.6l-4.8-2.4-27.2-28 24.6-80.5-108-36.1-6.5-27.8 22-87.6z" class="cr-shape"/><path d="m355.1 309.8-6.5 20.7.5 3.6 2.4 4.5 1.5 2.6s1 1.6 0 2.4-1.3.8-2.3 1l-4 .8v3.4s-.2 4.7 0 5.8l1 5.5 3.8 7.3s1.5 4.2 1.5 5.8.5 6 2.6 6.5q3.1.8 5 .6h5c1 0 1.8-.6 4.5 0 2.6.5 4.2 1.5 4.2 1.5s3.6 1.6 4.7 1.6c1 0 2.6-1 2.6-1s1.6-1 2-3.2c.6-2 1.7-2.6 2-4.2.2-1.6.4-1.6 1-3.4s-.8-2.6 1.3-2.6c2 0 3.1-.3 4.4 0s3.4 0 5-.3l5-.8s1.3.3 3.1 1.4 4.8 1.8 5.8 2.3 1.6 1.3 3.7 1.3c2 0 3.6.5 4.7 0 1-.5 7.9-2 7.9-2l6-1.1 5 3.6v3l-.3 3.9s1.8 0 3.1.5 4.8.5 4.8.5 2.6-.8 3.4.5 2.9.8 2.9 3.2c0 2.3 1.5 1.6-.3 3.7-1.8 2-2.1 2.6-2.1 3.6s2.4 2.6 2.4 2.6l7 2.7 4.7 1.3 2.1 2.6.3 4v4.1l3.7 5s1.8 1 2.9 1 3.9-.7 5.2-.7l4.7-.3c1.9 0 2.1-.5 3.4 0s3 1.6 3 2.6v2.6s2 1.3 3.6 2.1c1.5.8 3.1 2.1 3.1 2.1s2.1.8 2.4 2.1l.2 1.6s-2.6.5-2.6 3.7v4.2c0 1.8-1 1.5 0 3.6s2.9 2.7 3.2 3.7c.2 1 3.4 2.6 4.4 2.6l3.2.3 2 1.8 5 1s1.6.9 3.4 0c1.9-.7 3.5-3.3 3.5-3.3l3.9-1s1.8 2.8 2.9 3.3 2.6 4.7 2.6 4.7l.5 3.2 1.9 2.6 3.4 4.7 3.6 2.6 5 5 4.5.3 3.6 1.8s.3 1.9 1.6 1.9h3.7s1.5-.8 2 .2l1.4 2.6s1.3.3 2.9.3 2 .5 2.3-.8 2.4-3.7 3.4-4.4-1.5-2.1 1.3-2.1h3.2s-.5-2.1-.5-3.4c0-1.4-1.4-3 .5-3h3.1v-5.2l-3.6-2.9s-1.6-2-3.2-2-2 .7-3.4 0c-1.3-.8-2-4.5-1.8-6.3.2-1.9 1.3-4.2 1.3-4.2s1-.8 1.8-2.7c.8-1.8 1-3.6 1-3.6l5-2.6 3.5-4 5.7-5 .5-4.2s-3.4-1-4.7-2c-1.3-1.1-3.6-3-4.7-3.7-1-.8-4.2-5-4.2-5l.5-6.3v-4.4l-2-3.4-4.5-5.6L481.4 275l-3.9-6.3v-3.4l1.3-1.6 1.6-1.8 2-2.6 2-3.2-34.1 20.2-44.6 28.6z" class="cr-shape"/><path d="m427.3 147.3 2.5-2.8h2.7l4.3 1.5 5.6 1.1h4.2l4.3-.5 3.9-2 2-.4 3.2 1.6 10.5 6.7 5.2 2.6 2.6.2h4.5l3.5-.4 5.2-2.6s2-1 2.7-1l5.8-.8s2.4-2.6 3.3-2.8c1-.2 2.8-.2 3.5-.2h4l2.5-1 .8 1.8.5 5 1.5 2.2 3.5 3.3-1.8 1.9-3.5 1.3h-4.7l-1.8.7s-1.3.8-2.2.8H503c-1 0-2 .3-2 .3l-1.7 1.9-2 1.6-.4 1.3-.7 3-.6 1.9s-.2 1.3 0 2 1.3 1.7 1.3 1.7.6 2.2.2 3-.4 2.7-.4 2.7l-.1 4v2.5l2.6 2.8.3 1.3c.2.7 1 3.5 1 4.2s-.8 3.7-.8 3.7l-1 3.4s-.1 1.8-.3 2.6c-.2.7-1 .7-2 1-1.1.5-3.5 2-3.5 2l-1.2 2v2.2l.4 2.4 1.1 2.6 2.4 1.9s1.5.9 1.9 2.2.4 1.6.4 2.4-.6 3.7-.6 3.7l-.6 2.8s.6.9-.9 2.2l-2.4 2.2-1.3 3v3.3l-2.4 7.6-1 2.6-1 2.2-1 1s-1 1.3-1.8 1.5-1 .3-2 .3c-1.2 0-3.8 1.1-3.8 1.1s.4-.5-.9.2l-3 2-2.7 2s-1 2.1-1 3v2.5c0 .9-1 4.2-1 4.2l-1.4 1.9s-2.2 1.3-3 2q-1 1.1-2.3 1.3c-1 .2-2.5 1-2.5 1l-1.3 2.4.2 3.8 1.7 4.1.4 2.2s1 1.9.5 2.6-.9 2.8-1.8 3.2-1.9 1.5-3 2.2-1.5 1.7-1.5 1.7-2 .7-3 .7-2.5.4-3.8.4h-4.1l-3.2-.4-2.6.6s-1.4.7-2.2.7h-1.5l-3.1-.2-1.9-1-1.3-.6-1-1.5-4.1-28.2 1.4-35.7z" class="cr-shape"/><path d="m214.8 81.2 62.3 26.1L327.5 81l7.2 6.5 3 1.8L340 91s.9 1 2.2.4L345 90l1.6-1.5 2.4 1 2.5 2.1s-.8 1.9.3 2.4 4.1 3.4 5 3.4 2-.6 3.2-.2c1 .4 3 1.8 3.9 2.4l5.2 3.7 2.4 2 2.7 1.2s4.1 1 5.6 1 2.2.4 3.3-.1l3.6-1.9 2.4.2 2 2 .6 3.4s-.4 2.2 0 3a43 43 0 0 0 4 4.8c1 .7 3.6 2 4.5 2.6 1 .5 5 3.5 5 3.5l3.9 2.4 2.6 2.6s1.5 2.8 1.5 3.5v3.5c0 1-.2 1.9.3 3.2s2.6 2 4.5 2.4l10 2.2c1.1 0 2.4 1.7 2.4 1.7l1.3 148.2v2.6l-.6 1.7s-1 2.2-1.8 2.8-1.1.5-2.6 1a9 9 0 0 0-2.6 1s-1.3 1.9-2.2 2l-3.2.8-4 1c-1.4.1-2.5-.3-3.6.9-1 1-.9 2-2.4 2s-2.4-.7-3.7 1l-2 2.5-3.4-1-2.4-2s-.9-.7-1.8-.3-1.3 1-2.2 1H388c-1.1 0-4.7-1.4-4.7-1.4s-1.6-1.3-2.4-1.3h-3.7c-.7 0-2.2.4-3.1.8-1 .3-2.4 1.6-3.4 2s-2.6.5-3.1 1.3c-.6.7-1.5 2-2.4 2.4-1 .4-6 3.5-6 3.5s-1 1.3-1.8 2l-2 2.3-1.9 5.4-2.6 1.4-2.8 1s-1.5-2.3-2.2-2.3-3.1-.5-3.1-.5-.8.2-1.5 0c-.8-.2-1.5-1.3-2.8-1.9l-3.7-1.6-2.4-.6-1.7-.4s-1.8-.9-1.8-2.4l.1-4.4c0-1.5 1.5-4.5 1.5-4.5l2.2-3.1s1.5-1.7 3-2.6 1.1-1.7 2.4-1.7 4.1-2 4.1-2 .6-1 .7-1.7c.2-.7-.5-1.3 1.7-1.3h3.3c1.5 0 3.4-1 3.6-2 .2-1.1.5-.6.3-2.4-.1-1.9-3.3-5.8-3.3-5.8l-3-2.8c-.9-.7-1-2-2.7-2s-4-1-4-1l-2.5-3.4-2.8-6.3-1.3-2.5-1.7-2.2-2-2.2s-1-1-1-2v-2.4s.4-1.3 1.2-2.3 1.5-1.5 1.5-2.2l.3-2.2c0-1-.3-1.9 0-2.8.4-1 1.1-1 1.3-1.9s.4-.7.4-2 .7-1 .2-2.6c-.6-1.7.2-1.1-.8-2-.9-1-1.8-1-1.8-2.2s1.3-1.2-.2-2.3-1-1.5-1.9-1.5-.9-.5-2 .2l-2.4 1.7-1.5 1.5s-.4 1.7-1.1 1.7-1-.2-2.2 0l-5.2.1h-2.6l-1.9-2.4s-.7-.2-1.6-1.6-1.3-1.9-1.3-2.6-.2-.6-.2-2.6V231l1.7-2.6 1.4-2V224l-1-3-.4-3.2.7-2.6-.4-3.3-.2-2.2-3.8-11.3s-1.2-1.1-1.9-1.5l-3.1-1.7s-1.7-2-2.8-2.8l-3.7-2.4-4.5-2.7-2.4-1.9c-.7-.6-1.8-1.8-2.6-1.8-.7 0-2.2-.4-2.2-.4l-2.2-.4-8.7-1.7-2.6-2-1.7-1.3c-.7-.5-1.3-.7-2.6-2.4q-2-2.6-2.4-3.7c-.2-.7-.8-3-.8-4.5 0-1.4 0-3.1-.3-4-.4-1-.2-1.1-1-2.3-.7-1-3-2-3-2h-.8l-2.6-1.1-2.6-1.5s-.8.2-2-1.5l-1.4-1.6-2.4-.2-.9 1.5h-1.7l-2.6-.2-2.2-2s-.7.3-1.5 0c-.7-.4-1.3-.4-1.8-1.5s-2.2-2.8-2.2-2.8l-3-2.8-2.6-.8-2.6-.1-5.7.3H211s-2.4.8-3.5.8-.8.9-1.9 0-.5-1.9-1.6-1.9-1.3.8-2.5 1.1c-1 .4-1.3 1.1-2 .4s-2.2-2-2.4-3-1.3-3-1.3-4.2-1-3.2-1-3.2-1-1.3-2.2-.7c-1 .5-2 1.3-2 1.3s.2-.2-1.1-1c-1.3-.7-3.7-1.6-4.3-2.4s-3-3-3.5-3.7-1.3-.5-1.3-2.7 1.3-2.6 0-3.7l-2-2c-1.5-1.6-4.5-6-5-7s-2-2.7-2-3.8 4-3.7 4-3.7 3-.6 2.6-1.3l-.5-1.5 3.1-2.2 1.9-1.9s.7-1.5 1.6-2.8.6-2.8 2-2.8h6.4c1.8 0 3.7-.3 3.7-.3l3.3 2.4s-1 1.1.7 1.1 4.5-.6 4.5-.6 3.3-2 3.5-2.7l.6-4s-.6-1.4 0-2.3c.5-1 2.6-1.7 2.6-1.7l2.4-.6zm14.5 187.9-2.6-1.7-1.3.2-2-1h-2.3l-3 1.1-.4 4 1.3 2.6 1.5 1.3.3 2c.1 1 2.1 2.3 2.8 2.3h2.7l4 .2s1.4-1.5 1.2-2.2l-.2-2.3s-.8-1.6 0-1.9 1.4-.4 1.2-1.5c-.3-1.2-1-2.1-1-2.1zm18.1 26.6s-1.4-1-2-1c-.5 0-3.1.8-3.1.8v1.2s.1 1.4.8 1.5l2.3.6s1.6.2 1.9-.3l.5-1.4zm30.4 9.3v-1.5l-1.3-1.5-1.8.3-1 1 1 1.7s.2 1 .9 1 1.8-.7 2.2-1m0 8.3 1-2-.6-.9s-1.4-.8-1.7 0 .4 2.2.4 2.2zm5.8 1.1c.6-.4.8-3 .8-3l-1.9-1.1s-1.2.3-1.2 1 .4 2 .4 2zm.2 12.9 2.3-2.3-1.2-1.6-2.4 1-1 1.6s.8 1.3 1.3 1.5c.5 0 1.4 0 1-.2m8.9 5.5 1-3-2-1.6s-1.7 1.4-1.7 2l-.1 2.1 1.7.7zM237.3 387l-2-2.3-1.5.5s-1 .3-1.2.8c-.3.6.3 1.2.3 1.2s0 1 .7 1.6c.7.5 2.4.6 2.4.6l1.4-.5zm130.4 4.3c-1.3.2 0 0-.4.6-.1.3.5 0 .8 0 .2 0-.3-.4-.4-.6m298.8-91.5c.6 0-1.2-.5-1.7-.8-.2 0-.5 1.3-.6 1.5-.1.6 1.2.4 1.6.4.6 0 .4-.5.7-1.1M533 583.8h2.5s0-1.2.5-1.4l2-1s1.3.7 1.7.7 1 .5 1 .5v1.2l-.2 1.5s-.4.8-.8 1.1c-.3.4 0 .6-.5.9s0 1.4 0 1.4.8-.1 1 .5l.4 1s-.4.7-.9 1-.1.8-1 .7c-1 0-2-.5-2-.5l-1.1-1.8s-.6-.8-.7-1.2.7-.8-.3-1.1l-1.8-.7-.7-1.2.4-1zm-53-29s-.7 0-1.1.8l-1 1.6c-.3.6-.2 1.2-.6 1.5s-.2.8-1 .8c-.7 0-.8 0-1.4-.5l-1.6-1.2c-.4 0-1.6-1.5-1.6-1.5s1.2-1.2 1.8-1.4c.5-.1 1.1-1 1.7-1.6s.2-.9.9-.9 1.1-.7 2.2-.7h2.4s.5 1 .4 1.4c-.1.5-.6 1.3-.6 1.3z" class="cr-shape"/><path d="m309.4 204.7-2.8-1.3-.5-1.9-1.6-1.7h-4.2s-2.2-2-2.8-2c-.7-.2-1.5-.9-2-1.1l-2.1-1q-.6-.5-2.5-.7c-1.3-.2-3.3-1.2-3.3-1.2s-2.6-2.1-3-2.9l-.6-1.6-.8-1.7s-2.2-.6-2.8-.6-.2.4-1-.3-1.2-2-1.2-2l-.1-1.1s-.3-.7-1-1c-.6-.2.2-.5-1.1-.5h-2.3l-1.7 1.2s.2 1.2-.4 1.2h-1.4c-1 0-1.6-.4-2.2-.3l-1.7.6-1.7 2.3-.2 1.8 2.5 3.2s.8 1 1 1.8c.3 1 1.5 1.9 1.5 1.9s2.6-.3 2.9-.8l1.4-1.6 1-1.6 1.1-.2h1.7l.6 1.5 1.3 2.3.1.8 1.2.5c.8.1 2.9.8 2.9.8h1.4l2.2 2.8 2.4 2.8c.8.8 4 2.2 4 2.2l2.4 1.2 2.2.8h1.5l4.2 1.4s3.4 1.2 4 1c.4-.3.8-1.1 1.4-1.5s.7 0 1.1-.5.4-1.9.4-1.9zm-4.1-79.4-.9-1.4-.5-1 .8-1.6 2-2s.9-.7 0-1.5c-.7-.8-1.8-1.7-1.8-1.7s-1.5 0-2 .4-1.6 2.3-2.2 2.3c-.5 0-3.4 1-3.4 1s-.2 1 0 1.7q.6.8.8 2l.1 1.5s-.3.4.2.8 1.7 2 1.7 2 1 .7 1.8.7 2.4-.6 2.5-1.1.7-1.7 1-2.1m220.8 27.6-.4-1.4-1.3-1.5-.4-3s-.4-1.7-.8-1.9c-.3-.2-.3-1.1-1.3-.6-.9.4-1.9 1.4-2.5 1.5-.5.1-1-.2-1.7.4l-1.9 1.5s-.4.5-.4 1l-.1 2.1c0 .4-.3.3 0 1 .3.8 1.3 2 1.3 2l2.2 2.7 2.6 1.4 3 .6 2.7.1s1.5-.3 1.4-.8c0-.6-.5-3-1-3.4zm6.2-15.3-2.8 2.7-2 1.6c-1.3.8-1.7 1-1.8 1.6 0 .7-.3.9-.2 1.7q0 1.3.2 2.3c0 .7.9 3.5.9 3.5s1.6.6 1.7 1.2l.6 1.7 1.1 2 1.3.3s2 0 2-.6c.1-.7.4-.8.6-1.4.2-.7.6-1.9 1.1-2.2s.7-1.2 1.8-1.2h2.6s1-.7 1.2-1c0-.4.7-2 .7-2v-9.6l-1-3.4-.4-1.6.4-2.2 1.7 1.3.3 1.5v3.2c0 .7.4.8.4 2v3.4c.3.9.5 2.7.6 3.4a14 14 0 0 0 1 3.3c.2.4 0 1 .6 1l2.3-.3q1.1.2 1.5-.6l.4-1.8.6-2.2-.7-2.1c-.2-.5-1-1.6-1.1-2.3s-.1-2.2-.3-3-.2-2.1-.5-2.7l-1.6-2.7c-.4-.7-1.4-3.8-1.6-4.2q-.2-.6-.8-1.4l-2.2-2.5c-.4-.4-1.6-1.7-1.6-2.3l-.1-4-1.8-1.9c-.4-.4-1.7-3.3-1.7-3.3l-1.2-.9-1.4.3-.9 1-.9 1.9-.4 1.7c0 .3-.6.7-.6 1.3v1.9c0 .5 0 1.6.4 2.2l1.6 2.2 1 3.7s.9 2.5.8 3q-.3.7-.4 1.9l-.4 3.3zM213.3 532.5l1 1 .8 1.5s.9.7 0 1l-1.2.4c-.8.3-.5.3-2 .3h-3.5l-3.4.4-2.7-.4c-.3 0-1.3 1-1.3 1l-.8.9c-.4.2-.3 1.3-.3 1.3l.6.8 2.1.4 1.5.3s.7.7.7 1.1.2 1.5-.2 1.9l-1.1 1.2c-.6.5-.6 1-1.2 1.3s-.7.7-1.3.6c-.5-.2 0-1.2-1-1.3s-1-1-1.7-.6-.7.3-1.2.8l-1.1.9q.1.1-.5.4l-1.3.1c-.7 0-.8-.2-1.4 0s-1.6 1.9-1.6 1.9l-1-1c-.5-.2-.3-.6-1-.9-.8-.3-1-.3-1.5-.3h-.8q-.6 0-1.7.8c-.8.4-.5.4-1.1.6-.7.3-.5.7-1.3.7h-1.2c-1 0-1 .3-1.8.2-.7-.1-1-.8-2-.8-.8 0-.4-.5-1.2 0l-1.8 1.2c-.7.7-.5 1.2-1 1.5q-.8.4-1.7 1.8c-.6.9-.6 1-1.2 1.5l-2.8 2.5-1.8 1.3-1.6 1.4s-.4 1-.4 1.5v1.9l-.1 1.7c-.1 1 .2 1.8-.4 1.8s-1.8.4-2.2.6c-.5.3-.6.2-1.1.8q-1 .6-1 1.2v1.4c0 .8.5.5 0 1.3-.4.7-.1.7-.8 1.3l-1 1c-.4.5-.8.3-.8 1s-.2 1.7 0 2.1l.6.7q.8.7 1 1.1c.2.4.2 1.5.2 1.5l.5 1 .2 2c0 .4.1 1.4.7 1.4h1.1c1 .1 1 .2 1.6.6l1.3.7 1.6 2.3 3 3.2 4 3.8 2 2 1.9 1.7h1.1l1.1.8.8.3 1.9.2q.7.2 1.4 0c.4-.2 1.7-.2 2-.6.1-.5.4-.6.4-1.2l.2-1.2v-1.4c0-.4.8-1.3.8-1.3s0-1.2.5-1.3 1.2.6 2-.2l.9-.9s1.2-2.5 1.2-3c.1-.6-.2-1 .2-1.3s2-.8 2-.8l1.5-.4 8.4-2.2 6.6-3.3s1-.7 1.5-.7 2.5-1.3 2.5-1.3l.2-1c.4-.5 1.4-1.2 1.4-1.2s1.3-.3 1.4 0c.1.4-.2.4.5.9q1 .8 1.7 1 .7 0 1.5-.7 1-.6 1.2-1l.5-1.6.5-1.8.7-1.1h2.2l1.2-1.4.2-1.8c0-.3.4-1.3.8-1.3l2.4.1s.2.9 1 .9c.7 0 2.2 0 2.7-.3l3.2-1.8 1.7-1.7 4.1-4.5s1.2-.8 1.3-1.6c.2-.7 1-2.5 1-2.8l-.1-1.7-1.5-2c-.3-.4-.7-2-.7-2.5s.5-1.8.1-2.3c-.3-.4-.9-1.3-1.4-1.3q-.8-.1-1.7-1l-1.3-1.3-1.9-2.3-.3-2-.1-1.8s-2-1.3-2.4-1.3l-1.7.1-1.8.2c-.4 0-1.7 1-2 1.1l-1.3.6q-.7.4-1.4.2c-.5 0-2.2-1.2-2.2-1.2l-2-1.8-1-1.4-.2-1.6q.1-1.4-.4-1.8l-1.3-1-1.4-1.4s-.3-.9-1-.6-1.8 1.3-1.8 1.3l-.8 1.4zm20.8 43.9 1.5-.4.8-1.1v-1l-.9-1.2s.2-.7-.4-.7q-1.2.1-1.3.3l-.3.8s-.6.6-1 .7-1-.4-1 .3l.1 1.3c.1.4-.4.5.2.7l1.3.2zm-26.7 16.3s1.3-.3 2-.7l1.4-.5V590l-.8-.9-.7-.4s-1-.3-1.2.4q-.3.8-.7 1c-.4.3-.6.3-.7 1.2 0 1 .6 1.4.7 1.4" class="cr-shape"/><path d="m190.1 598.7 1.6-1v-1l-.8-1.6-1.2-.2s-1 0-1 .6v1.2q-.2-.1-1 .5c-.4.5-1.3.3-.4 1 1 .8.9.8 1.2.8h1.2zm-39.7-10.5s.2-1.3-.1-1.7l-.7-1-1-.2-1.4.3s-.8.2-.8.6v1.1l1 .6.6.1s.2.6.8.6q.7.1 1.6-.4m-2.9 6.1s1-1 1-1.4l.3-1.3-.1-.9s-.7-.5-1.2-.5q-.9-.2-1.3 0-.7.5-.7.7l-.6 1v1.1c0 .4.6.8.6.8l.9.4zm47.5-53.7h1.7c.4 0 1.1.6 1.2-.3 0-1 .5-1 0-1.6l-.5-1s-.4-.7-.9-.7-1-.4-1.5 0q-.6.6-.4 1.6l.1 1.3zm13.2-5.7c1.5 0 3 .4 3.2-.3.2-.8.3-.6.3-1.5s.3-1 0-1.3l-.7-.7s-.9-.1-1.4.1c-.6.3-.7-.3-1.2.4s-.9.7-.9 1.3l.2 1.3zm9.8-7.7c.5-.1 2-.8 2-1.2v-1.2c0-.6.3-.2.4-1v-1.7s.3-.4-1.1-.2q-2.3.3-2.8.9c-.2.4-.5.1-.6 1.3q0 1.8.2 1.7l.7 1zm34.4-461.6c0 .4.7 1.1.7 1.1s.1 1.2.9 1.8c.7.5.6.7 1.2.7q.8 0 1.4-.5c.3-.4.8-.3.8-.8s.2-.6.2-1.4l-.2-2s-1 0-1-1.1.4-1.4-.1-1.8l-1.2-1.2c-.7-.6-.7-1.8-1.3-1.2s-1 .8-1 1.5V64q0 1-.4 1.6m-5.8-1.9s1 .5 1.3.9c.2.4 1.4.3 1.4-.3l.3-1.3.1-1.6v-1.3s0-1-.8-.8-.8 0-1.2.4c-.5.4-.5 0-.8.6-.2.7 0 .9-.5.9s-.8-.6-.8.2l.1 1.4zM263 65s2-.1 2.6-.4.8 0 1-.7c.4-.6.4-.6.4-1.3-.1-.6.3-.3-.2-.8s-.2-.5-1-1c-.7-.6-.3-1-1-.8q-.8.3-1.3.8c-.3.4.4-.4-.6.4s-1.2.5-1.2 1v1.2l.5 1.3zm7.4 6c0 .4 2.1 2.6 2.1 2.6s.4.4 1 0 1-.1 1-1q.2-1.2.1-1.9l-.3-.6-1-1.2-1-.9c-.7-.7-.6-1.2-1-1l-1.1.7c-.4.2-1 .4-1 .9s.5 1.3.5 1.3zM74 114.2l-3 .5m169.7 185.5-2.7-1-1.5-1.8-2-1-2.5-1.2s-1-1.5-1.6 0l-.8 2.2-2 1.3-3 1.7s-1 1.5-1.8 1.9c-1 .3-.8.5-2 .5H219l-1.4 1.3s-1.9.6-2.8.6H212l-3.1.2c-.8 0-2.5.3-2.8 1-.4.8-1.1 2-1.1 2.7s-.8 1.4-.4 2.2c.4.7 1.7.7 1.7.7l3.1 2.6 2 1.9 2.8.9q0 .2 1.7 1.1c1.1.6 3 .6 3 .6s1.4.1 2 1.3c.6 1 1.5 1.6 1.5 2.6s1.3 4.2 1.3 4.2l3.7 2.4 1.1.6v1.5c-.2.7-2.8 2.7-2.8 2.7l-1.5 1.7s-.3 1.7-1 2.2c-.8.6-1.6 2-1.6 2.8s.2 2.2.4 3l1.1 2.8s1 .9 0 2.2-1 1.5-2 2.6c-1 1-1.5 2.4-2.2 2.8l-2.3 1-.5 1.2 2.6 5.4s1.6 1 2.6 2.2q1.3 1.4 1.8 2.6c.4.9 2.8 3.1 2.8 3.1l2 6.7 2.5 2.6.7 1.8h2s-.3 1.2.4 1.3-.2.8 1.9.2c2-.5 2.2.2 2.4-.9l.9-3.3c.4-1.1 2.6-5.2 2.6-5.2l4.2-4.7s1.3-4.2 2.6-5.5 2.6-3 3.4-3.4 3.5-1 3.9-2 .9-3.1.9-3.9 1-4.2 1-5 .5-2.2 1.2-2.2c.8 0 5.4 2.2 5.4 2.2l2.6.8h3.1l1.9-1.9s-.6-2.4-.6-3.3c0-1 1.3-3 1.3-3s2 1 2 0q0-1.6.3-3c.1-.7.9-1.8 1.8-2.4s3.5-1 3.5-1 3 1 3 0c0-1.2 1-3.6 1-3.6s-1-1.5-2.3-1.5-2.6-.5-2.6-.5-1-1.2-1.8-.8c-1 .4-.4.4-1.5.6s-3.2-1.7-3.2-1.7l.8-2.4c.1-.7 1.3-2.4 1.3-2.4s.5-1 0-1.9-1.2-.7-1.5-1.4c-.4-.8-1.9-.6-1.1-2.3q1.2-2.6 1.4-3.9l-.5-3.7-3.2-2.4-4.2.2c-.8 0-6.1-1.8-6.1-1.8l-4.5.1-3.1-2-3-1.3h-2.4l-3.7-1zm237.1-31.7 66.5 30.6 60.6.4.7 1.5s1.1 2 0 2.4c-1 .3-1.8-.4-2 1.3-.2 1.6-2.8 5.2-2.8 5.2s-1.5 1-1.5 2.2c0 1-.3 2.8 0 3.9.4 1 1.5 5.3 1.5 6.6q0 2 1 5c.5 2 1 4.3 1 5s-2 3.6-3.5 4.7a15 15 0 0 1-4.8 2.4c-1.1.2-.7-.8-3.1.4-2.5 1-2.8.3-2.8.3l-1.7 4.1-3.7 8.9-.6 6.1-1.6 4.5s-2.4 3.9-3.5 3.9-4.7 2-4.7 2l-3.1 1-2 2.7s-2.8 6-2.7 6.7c.2.7-.1 3.7-.1 3.7l3 8.5.7 2.4-.8-.4-2.6-.7H563l-3.1-4.4-2-1.2s-1.6-2-2.5-2q-1.4-.2-3.3.2c-1.3.4-3.2.7-3.2.7l-3.7-4-2.6-2.6-2.6-1.7s-1.5 0-2.2.5-2.4 2.8-2.4 2.8l-4 2.3-3.4.1c-1 0-2.8 1-3.5 1.2s-1.3 1.2-2 .1c-.8-1-5.6-4.4-5.6-4.4s-1.2-2.4-1.3-3.5-1.2-3.2-1.5-4.1c-.4-1-2.6-3.2-2.6-3.2s-2.2-.3-3.5 0a11 11 0 0 0-3 1.9l-3.7-1.7-2.6-2.2s-1.7-1.1-2-2.4-1-3.5-2-4c-1.2-.6-4.3-1.2-4.3-1.2h-5.6s-3-4.3-3.7-4.8-5-6-5-6l-4.5-4.4-5.9-5.4s-2.4.2-3.3.6c-1 .4-3 1.7-4 1.7-.8 0-3.6.5-3.6.5h-2.6s-1.7-1.3-1.7-2a7 7 0 0 1 1-2.8c.5-1.1 1.4-2.8 2.5-3.7s3.6-2.6 4.7-3.3c1-.8 4.8-2 4.8-2l2-4.2-.9-5.9-2.6-1.8c-.7-.6-3.1-1.7-3.1-1.7l-1.3-2.2.3-3.6 3.2-2.7s1.6-1.2 2.8-1c1 .2 4.2 1.9 4.2 1.9l4.7.4s3.7-1.2 4.4-1.3l7.6-2.6 4-1.1s2.7-2 2.7-3l.2-4.6v-4.1l-3.2-4-4.6-6.8-1.7-2.7s-1.5-.4-2.6-1.7a13 13 0 0 1-1.8-3.7l-.6-2.6zm305.1 127.2-13.7-.5h-3.4l-4.5-3.7-3.4-3.6.8 4.4-1.8 1.9-1.8-.8-1.6-2.4-2.9-2.3-1.8-.8-3.2.2-.2 4.7s.2 1 .2 2.1c0 1-.2 2.1-1.5 2.4l-5 .8-2.4-.5-2.6 1.5-3.2-1-1.5-3.4-2.1-2.4-1-2.3s-1.6-1.9-3.2-2.1l-2.9-.3-2.9-4.2s-2.3-1.8-3.4-2l-5.5-2.7s-1.6 0-2.6-.3-3.2-2.9-4.2-2.9-3.7-1-5-1-2.3 0-3.7 1.3c-1.3 1.3-3.1 4.7-3.1 4.7l-2.6 3 2.3 2.5 1.3 1.6s.3.5.3 2.4v3.9l5 1.8.3 1.9-3 2.3-4.4 1c-1 .3-1.8 1.4-3.1 1.4s-3-.8-4.2 0-3 2.9-3 2.9l1.7 70.7s-.6 2.4.8 3.2 5.2 3.4 6.2 4.2l3.2 3.1 1.3 2.9 1.6 1.8 6 1.9s3.4 1.8 4.5 3.1c1 1.3 2.6 4.2 2.6 4.2s1.3 1.6 3.4 1.6h4.7s3.1 2.6 4 3.6c.7 1 4.1 4.8 4.1 4.8s2.4 3.6.8 4.1c-1.6.6-3.4 2.1-4.4 3.5s-4.5 2.6-5.3 3.6-1 2.4-2.6 2.4-2.9-.5-4 0c-1 .5-2 2.6-3 3.1-1.1.6-4 3.2-4 3.2l-5-1.9s-2.4 0-2.4 1a20 20 0 0 0 2.1 9.3s-2 1.5-3.6 2q-2.2.7-3.7 2.2c-1 1-3.1 2.3-4 3.4-.7 1-1.2.5-1.2 1.8s-.3 2.9.7 4.5c1.1 1.5 6.6 7.6 6.6 7.6s1.6 1.3 1.6 2.3v4q0-.2 2.3 2.3c1.6 1.8 2.7 3.7 2.7 3.7s2.3 2.9 2.6 4.2c.2 1.3-.3 3.4.5 5.7s1.6 7.6 1.6 9.5c0 1.8-1 5-1.6 6.8-.5 1.8-2.6 6-2.6 6l-7.1 4.5-6 1.5-3-1.3-2.3.3-1.3 4.2c-.5 1.8-3.4 4-3.6 5s-4.5 3.4-6 5.2c-1.7 1.8-9.3 6.3-9.3 6.3s-2.3 1-2.3 2.6 2.3 3.2 2.3 3.2h4.5l5.2 6.2 5.3.8s1.3-1 1.8 1c.5 2.2 0 2.4.5 4.8s0 3.7 1.4 5.2c1.3 1.6 1.5 1.9 3.1 3.4 1.6 1.6 2.4 5.8 2.4 5.8l1.8 5.5 1.6 5.3-.6 4.7a39 39 0 0 0 .8 7.3v2.1l1 .8h2.4l2.4-2.4.5-3.6.3-4.2-.5-7.6-1.4-6s-1-7.4-1-9.8c0-2.3-.5-4.1 0-6 .5-1.8 2.6-4.4 3.4-5.5l3.2-5s1.5-1.3 4.1-1.3c2.7 0 2.7.6 5-.8q3.7-2 6.6-2 2.6 0 5.7-1.1c2.1-.8 2.1-3.1 4.8-3.1s2.6-1.4 5 0c2.3 1.3 2.8 2 4.4 2.3s7.9.3 7.9.3h6.8s2.6 2.3 4.4 3.6 1.9 4.5 3.7 4.8 4.5 1.3 6.8 1.3h4.2l5.2-.3 11.6-.5z" class="cr-shape"/></svg>